External Loads File
version=1
nRows=46
nColumns=13
Range=5.000000e-03-10 seconds
endheader
time 	forceRightX 	forceRightY 	forceRightZ 	pointRightX 	pointRightY 	pointRightZ 	forceLeftX 	forceLeftY 	forceLeftZ 	pointLeftX 	pointLeftY 	pointLeftZ 		
2.505000 16.098423 -131.078636 -0.000000 0.086741 0.247455 -0.158291 -246.663096 528.211510 -0.000000 0.334716 0.390573 -0.403824
2.510000 15.634000 -130.295609 -0.000000 0.084337 0.253316 -0.158366 -243.917146 533.024049 -0.000000 0.337127 0.384677 -0.403825
2.515000 15.159529 -129.305257 -0.000000 0.082130 0.259246 -0.158403 -240.245546 537.533293 -0.000000 0.339370 0.378661 -0.403987
2.520000 14.735390 -128.097360 -0.000000 0.080132 0.265224 -0.158510 -236.040300 541.512680 -0.000000 0.341529 0.372618 -0.404135
2.525000 14.286739 -126.683600 -0.000000 0.078298 0.271475 -0.158602 -231.227433 545.085186 -0.000000 0.343615 0.366638 -0.404196
2.530000 13.894741 -125.070998 -0.000000 0.076686 0.277561 -0.158676 -226.353334 548.157975 -0.000000 0.345529 0.360507 -0.404213
2.535000 13.440617 -123.303401 -0.000000 0.075326 0.283846 -0.158725 -221.124445 550.968232 -0.000000 0.347408 0.354461 -0.403948
2.540000 12.903985 -121.419057 -0.000000 0.074123 0.290204 -0.158797 -215.771820 553.503164 -0.000000 0.349021 0.348446 -0.404065
2.545000 12.179293 -119.469302 -0.000000 0.073134 0.296620 -0.158825 -210.197689 555.898398 -0.000000 0.350502 0.342342 -0.404088
2.550000 11.218540 -117.519311 -0.000000 0.072554 0.303119 -0.158844 -204.562874 558.246309 -0.000000 0.351841 0.336126 -0.404096
2.555000 10.077166 -115.658014 -0.000000 0.071985 0.309477 -0.158890 -199.600180 560.488716 -0.000000 0.352975 0.329914 -0.404069
2.560000 8.490331 -114.025614 -0.000000 0.071703 0.316083 -0.158893 -194.655918 563.061697 -0.000000 0.353992 0.323668 -0.403982
2.565000 6.405043 -112.732818 -0.000000 0.071696 0.322739 -0.158829 -190.181709 565.929662 -0.000000 0.354769 0.317438 -0.403991
2.570000 3.600108 -111.853606 -0.000000 0.071992 0.329425 -0.158813 -185.752557 569.257656 -0.000000 0.355371 0.311086 -0.403921
2.575000 -0.005598 -111.373604 -0.000000 0.072466 0.336095 -0.158778 -181.439130 572.944469 -0.000000 0.355806 0.304723 -0.403913
2.580000 -4.465119 -111.197950 -0.000000 0.073258 0.342671 -0.158797 -177.121274 576.912823 -0.000000 0.355950 0.298347 -0.403949
2.585000 -9.926716 -111.166323 -0.000000 0.074416 0.349440 -0.158918 -171.731930 581.381619 -0.000000 0.355992 0.291758 -0.404355
2.590000 -16.036268 -111.137602 -0.000000 0.075742 0.356025 -0.159056 -166.351339 585.937577 -0.000000 0.355535 0.285253 -0.404166
2.595000 -22.701619 -110.977783 -0.000000 0.077442 0.362683 -0.159095 -160.321085 590.703397 -0.000000 0.354911 0.278829 -0.404171
2.600000 -29.877452 -110.531756 -0.000000 0.079334 0.369880 -0.159212 -152.516601 595.930691 -0.000000 0.354018 0.272401 -0.404160
2.605000 -36.836867 -109.858926 -0.000000 0.081479 0.376282 -0.159321 -145.590111 600.966384 -0.000000 0.352862 0.266027 -0.404140
2.610000 -43.728700 -108.856941 -0.000000 0.083819 0.382752 -0.159485 -137.874906 606.342405 -0.000000 0.351456 0.259592 -0.404147
2.615000 -50.309309 -107.563502 -0.000000 0.086384 0.389251 -0.159697 -130.193359 611.945114 -0.000000 0.349767 0.253429 -0.404136
2.620000 -56.550312 -105.942620 -0.000000 0.089181 0.395561 -0.159864 -122.303698 617.858764 -0.000000 0.347834 0.247111 -0.404053
2.625000 -62.328370 -103.995502 -0.000000 0.092192 0.401937 -0.159980 -114.427334 624.003602 -0.000000 0.345625 0.241007 -0.404049
2.630000 -67.557971 -101.711846 -0.000000 0.095410 0.408194 -0.160161 -106.503000 630.295022 -0.000000 0.343168 0.234962 -0.404036
2.635000 -72.164677 -99.090297 -0.000000 0.098811 0.414258 -0.160273 -98.452688 636.603448 -0.000000 0.340420 0.228996 -0.404011
2.640000 -76.114969 -96.122414 -0.000000 0.102368 0.420245 -0.160416 -90.124903 642.824396 -0.000000 0.337397 0.223193 -0.404005
2.645000 -79.408204 -92.788603 -0.000000 0.106146 0.426196 -0.160516 -81.375769 648.899248 -0.000000 0.334158 0.217513 -0.403963
2.650000 -82.065221 -89.061571 -0.000000 0.110513 0.431891 -0.160507 -72.092061 654.770813 -0.000000 0.330693 0.211973 -0.403908
2.655000 -84.011275 -85.026779 -0.000000 0.114609 0.437640 -0.160723 -63.088101 660.229019 -0.000000 0.327002 0.206608 -0.403851
2.660000 -85.284735 -80.705291 -0.000000 0.118821 0.442895 -0.160919 -54.730738 665.063492 -0.000000 0.323104 0.201487 -0.403756
2.665000 -86.251984 -75.787816 -0.000000 0.123889 0.448188 -0.160507 -44.937189 669.199652 -0.000000 0.319035 0.196537 -0.403680
2.670000 -86.649877 -70.695647 -0.000000 0.127768 0.453223 -0.161369 -37.289696 672.107381 -0.000000 0.314799 0.191728 -0.403558
2.675000 -87.118606 -64.817490 -0.000000 0.132886 0.458331 -0.161285 -27.398272 673.669407 -0.000000 0.310414 0.187092 -0.403401
2.680000 -87.472048 -58.446462 -0.000000 0.137572 0.463311 -0.161932 -18.167299 673.135765 -0.000000 0.305837 0.182757 -0.403337
2.685000 -87.838011 -51.397422 -0.000000 0.142373 0.467813 -0.162134 -8.867425 669.808552 -0.000000 0.301122 0.178666 -0.403172
2.690000 -88.306614 -43.456837 -0.000000 0.147632 0.472175 -0.162235 1.738658 662.917291 -0.000000 0.296235 0.174833 -0.403025
2.695000 -88.820951 -34.707772 -0.000000 0.153154 0.475968 -0.162159 12.916767 651.711048 -0.000000 0.291225 0.171265 -0.402838
2.700000 -89.408156 -25.197124 -0.000000 0.158410 0.479818 -0.162402 24.375805 635.594945 -0.000000 0.286056 0.167941 -0.402666
2.705000 -90.153720 -14.860193 -0.000000 0.164086 0.483344 -0.162595 36.687982 614.142110 -0.000000 0.280778 0.164975 -0.402457
2.710000 -91.098036 -3.872212 -0.000000 0.169463 0.486642 -0.162808 48.653744 587.233446 -0.000000 0.275351 0.162323 -0.402208
2.715000 -92.313372 7.884996 -0.000000 0.175054 0.489634 -0.162825 60.890631 554.833011 -0.000000 0.269808 0.159967 -0.401941
2.720000 -93.777617 20.344803 -0.000000 0.180738 0.492342 -0.162825 72.987147 517.136571 -0.000000 0.264192 0.157892 -0.401676
2.725000 -95.385406 33.371179 -0.000000 0.186470 0.494848 -0.162849 84.792833 474.557251 -0.000000 0.258422 0.156182 -0.401411
2.730000 -96.968653 46.730612 -0.000000 0.192287 0.497118 -0.162786 96.061812 427.780592 -0.000000 0.252541 0.154678 -0.401127
